<?xml version="1.0" encoding="UTF-8" standalone="no"?>
<!DOCTYPE svg PUBLIC "-//W3C//DTD SVG 1.1//EN" "http://www.w3.org/Graphics/SVG/1.1/DTD/svg11.dtd">
<svg width="100%" height="100%" viewBox="0 0 32 32" version="1.1" xmlns="http://www.w3.org/2000/svg" xmlns:xlink="http://www.w3.org/1999/xlink" xml:space="preserve" xmlns:serif="http://www.serif.com/" style="fill-rule:evenodd;clip-rule:evenodd;stroke-linejoin:round;stroke-miterlimit:2;">
    <circle cx="16" cy="16" r="16" style="fill:rgb(225,106,0);"/>
    <g transform="matrix(0.06039,0,0,0.06039,0.310196,0.167822)">
        <path d="M272.95,16.707C121.66,64.421 330.272,127.587 246.414,148.051C190.7,161.648 137.3,96.283 192.947,45.313C102.181,77.837 126.655,134.983 180.551,158.563C214.861,173.573 212.435,219.943 189.194,223.2C235.564,168.915 72.557,178.463 103.164,75.73C-23.276,233.793 235.699,239.1 154.764,348.924C171.164,297.664 103.69,315.504 89.244,271.044C40.687,387.019 176.114,367.091 197.054,493.994L233.448,493.994L226.073,385.291L196.93,385.291C196.93,335.567 200.108,276.955 242.13,269.046C234.38,259.694 229.344,244.536 229.344,229.839C229.344,203.303 245.118,181.316 265.324,178.689L265.326,178.689C266.674,178.519 268.106,178.689 269.49,178.689C291.62,178.689 309.635,201.535 309.635,229.839C309.635,244.173 304.863,259.143 297.443,268.452C343.348,275.572 342.346,335.428 342.346,385.292L314.69,385.292L308.166,493.996L344.918,493.996C359.208,355.756 481.974,372.751 422.494,258.254C432.222,304.288 389.848,351.924 368.98,310.384C349.94,272.481 494.495,205.292 439.19,95.209C443.778,176.693 325.035,215.512 320.527,161.033C373.295,184.055 394.137,115.128 350.547,89.048C309.857,64.702 234.103,52.288 272.951,16.71L272.95,16.707ZM342.438,37.342C387.333,53.027 406.326,116.017 391.168,148.016C409.406,144.448 461.975,41.036 342.438,37.342Z" style="fill:white;fill-rule:nonzero;"/>
    </g>
</svg>
