<?xml version="1.0" encoding="UTF-8" standalone="no"?>
<!DOCTYPE svg PUBLIC "-//W3C//DTD SVG 1.1//EN" "http://www.w3.org/Graphics/SVG/1.1/DTD/svg11.dtd">
<svg width="100%" height="100%" viewBox="0 0 32 32" version="1.1" xmlns="http://www.w3.org/2000/svg" xmlns:xlink="http://www.w3.org/1999/xlink" xml:space="preserve" xmlns:serif="http://www.serif.com/" style="fill-rule:evenodd;clip-rule:evenodd;stroke-linejoin:round;stroke-miterlimit:2;">
    <g id="Deafened">
        <circle cx="16" cy="16" r="16" style="fill:rgb(120,144,156);"/>
        <g transform="matrix(0.709147,0,0,0.709147,4.651881,4.485231)">
            <path d="M20.592,23.441C20.464,23.393 20.317,23.365 20.162,23.365C19.626,23.365 19.168,23.702 18.991,24.177L18.988,24.186L18.886,24.485C18.788,24.813 18.718,25.196 18.69,25.59L18.689,25.608C18.676,25.828 18.643,26.034 18.592,26.232L18.597,26.21C18.514,26.492 18.42,26.732 18.309,26.962L18.322,26.933C18.101,27.361 17.816,27.724 17.476,28.025L17.472,28.028C16.74,28.65 15.816,29.068 14.801,29.184L14.778,29.186C14.543,29.219 14.272,29.238 13.997,29.238C13.179,29.238 12.4,29.071 11.693,28.769L11.731,28.784C10.838,28.413 10.124,27.762 9.682,26.942L9.671,26.92C9.405,26.376 9.249,25.737 9.249,25.061L9.249,24.997L9.249,25C9.249,24.31 8.689,23.75 7.999,23.75C7.309,23.75 6.749,24.31 6.749,25L6.749,25.059C6.749,26.144 7.003,27.17 7.455,28.08L7.437,28.04C8.157,29.408 9.305,30.469 10.699,31.063L10.742,31.079C11.689,31.494 12.793,31.735 13.953,31.735L13.987,31.735L13.985,31.735C14.377,31.735 14.763,31.709 15.141,31.66L15.096,31.665C16.657,31.483 18.043,30.844 19.145,29.886L19.136,29.894C19.71,29.382 20.185,28.774 20.538,28.093L20.554,28.058C20.709,27.749 20.855,27.383 20.971,27.003L20.984,26.953C21.08,26.63 21.149,26.254 21.176,25.866L21.177,25.849C21.191,25.622 21.225,25.409 21.278,25.205L21.273,25.228L21.336,25.044C21.384,24.916 21.412,24.769 21.412,24.615C21.412,24.079 21.075,23.622 20.6,23.444L20.591,23.441L20.592,23.441ZM12,24.695C13.816,24.637 15.266,23.152 15.266,21.327C15.266,21.212 15.26,21.098 15.249,20.986L15.25,21C15.253,20.513 15.401,20.062 15.654,19.687L15.649,19.695C15.781,19.5 15.86,19.259 15.86,19C15.86,18.31 15.301,17.751 14.611,17.751C14.18,17.751 13.8,17.969 13.576,18.301L13.573,18.305C13.061,19.063 12.755,19.995 12.751,20.999L12.751,21C12.751,21.727 12.457,22.195 12.001,22.195C11.545,22.195 11.251,21.726 11.251,21C11.251,20.31 10.691,19.75 10.001,19.75C9.311,19.75 8.751,20.31 8.751,21C8.741,21.098 8.735,21.212 8.735,21.327C8.735,23.152 10.185,24.637 11.996,24.695L12.001,24.695L12,24.695ZM30.885,29.115L23.308,21.538C23.444,21.39 23.569,21.231 23.709,21.089C23.971,20.829 24.23,20.566 24.471,20.275C25.685,18.799 26.575,17.009 27.005,15.047L27.02,14.964C27.171,14.204 27.258,13.33 27.258,12.436C27.258,12.282 27.255,12.129 27.25,11.977L27.251,11.999C27.251,4.729 22.528,1.455 18.485,0.859C18.022,0.784 17.489,0.74 16.946,0.74C13.062,0.74 9.693,2.941 8.017,6.164L7.991,6.22L2.885,1.115C2.659,0.89 2.348,0.752 2.004,0.752C1.314,0.752 0.754,1.312 0.754,2.002C0.754,2.346 0.893,2.657 1.117,2.883L29.116,30.884C29.342,31.11 29.655,31.25 30,31.25C30.691,31.25 31.251,30.69 31.251,29.999C31.251,29.654 31.111,29.341 30.885,29.115ZM18.121,3.334C21.178,3.784 24.75,6.324 24.75,12C24.755,12.124 24.758,12.27 24.758,12.416C24.758,13.133 24.691,13.834 24.564,14.514L24.575,14.444C24.334,15.556 23.942,16.54 23.413,17.435L23.438,17.389C23.152,17.882 22.855,18.306 22.527,18.704L22.54,18.688C22.352,18.915 22.147,19.12 21.942,19.323C21.808,19.457 21.666,19.605 21.524,19.755L19.185,17.416C19.789,16.545 20.15,15.465 20.15,14.3C20.15,13.101 19.767,11.991 19.116,11.086L19.127,11.102C18.129,9.822 16.587,9.006 14.854,9.006C14.789,9.006 14.724,9.007 14.66,9.009L14.669,9.009C14.243,9.035 13.845,9.108 13.466,9.224L13.503,9.214C14.146,7.905 15.47,7.02 17,7.02C17.062,7.02 17.123,7.021 17.184,7.024L17.175,7.024C19.423,7.233 21.169,9.11 21.169,11.395C21.169,11.608 21.154,11.818 21.124,12.022L21.127,11.999C21.127,12.689 21.687,13.249 22.377,13.249C23.067,13.249 23.627,12.689 23.627,11.999C23.647,11.802 23.659,11.573 23.659,11.342C23.659,7.729 20.853,4.771 17.302,4.529L17.281,4.528C17.22,4.526 17.148,4.525 17.075,4.525C14.173,4.525 11.715,6.429 10.883,9.056L10.87,9.102L9.9,8.132C11.012,5.252 13.759,3.246 16.974,3.246C17.379,3.246 17.776,3.278 18.164,3.339L18.121,3.333L18.121,3.334ZM13.62,11.851C13.957,11.659 14.355,11.535 14.78,11.508L14.788,11.508C14.818,11.507 14.852,11.506 14.887,11.506C15.797,11.506 16.607,11.935 17.126,12.601L17.131,12.607C17.459,13.081 17.655,13.667 17.655,14.3C17.655,14.77 17.547,15.215 17.354,15.611L17.362,15.593L13.62,11.851Z" style="fill:white;fill-rule:nonzero;stroke:white;stroke-width:0.18px;"/>
        </g>
    </g>
</svg>
