<?xml version="1.0" encoding="UTF-8" standalone="no"?>
<!DOCTYPE svg PUBLIC "-//W3C//DTD SVG 1.1//EN" "http://www.w3.org/Graphics/SVG/1.1/DTD/svg11.dtd">
<svg width="100%" height="100%" viewBox="0 0 32 32" version="1.1" xmlns="http://www.w3.org/2000/svg" xmlns:xlink="http://www.w3.org/1999/xlink" xml:space="preserve" xmlns:serif="http://www.serif.com/" style="fill-rule:evenodd;clip-rule:evenodd;stroke-linejoin:round;stroke-miterlimit:2;">
    <g id="Grappled">
        <circle cx="16" cy="16" r="16" style="fill:rgb(161,136,127);"/>
        <g transform="matrix(0.054035,0,0,0.054035,1.541747,2.166924)">
            <path d="M79.2,211.44C94.72,202.62 114.11,209.16 122.51,225.12L163.89,309.53C165.49,312.828 169.424,314.338 172.82,312.96C175.483,311.9 177.237,309.306 177.23,306.44L177.23,72C177.23,58.09 190.08,48 204,48C217.92,48 230,58.09 230,72L230,228.64C229.931,234.685 234.75,239.758 240.79,240C240.86,240.001 240.93,240.002 241,240.002C247.034,240.002 252,235.036 252,229.002C252,229.001 252,229.001 252,229L252,24C252,10.09 262.94,0 276.86,0C290.78,0 302,10.09 302,24L302,228.64C301.931,234.685 306.75,239.758 312.79,240C312.86,240.001 312.93,240.002 313,240.002C319.034,240.002 324,235.036 324,229.002C324,229.001 324,229.001 324,229L324,56C324,42.09 336.08,32 350,32C363.92,32 376,43.09 376,57L376,244.64C375.931,250.685 380.75,255.758 386.79,256C386.86,256.001 386.93,256.002 387,256.002C393.034,256.002 398,251.036 398,245.002C398,245.001 398,245.001 398,245L398,120C398,106.09 409.08,96 423,96C436.92,96 448.12,106.22 448,120L448,336C448,453.41 376,512 288,512L272,512C184,512 156.29,472.4 136,424L67.33,255C60.67,237 63.69,220.25 79.2,211.44Z" style="fill:white;fill-rule:nonzero;"/>
        </g>
    </g>
</svg>
