<?xml version="1.0" encoding="UTF-8" standalone="no"?>
<!DOCTYPE svg PUBLIC "-//W3C//DTD SVG 1.1//EN" "http://www.w3.org/Graphics/SVG/1.1/DTD/svg11.dtd">
<svg width="100%" height="100%" viewBox="0 0 32 32" version="1.1" xmlns="http://www.w3.org/2000/svg" xmlns:xlink="http://www.w3.org/1999/xlink" xml:space="preserve" xmlns:serif="http://www.serif.com/" style="fill-rule:evenodd;clip-rule:evenodd;stroke-linejoin:round;stroke-miterlimit:2;">
    <g id="Poisoned">
        <circle cx="16" cy="16" r="16" style="fill:rgb(66,135,54);"/>
        <g id="_x31_" transform="matrix(0.095109,0,0,0.095109,3.826065,3.815366)">
            <path id="_x36__3_" d="M173.7,171.4C171.6,172.2 170,174.3 170,176.6L169.8,178.9C168.8,189.5 150.7,197.4 128,197.4C105.3,197.4 87.2,189.5 86.2,178.9L86,176.8C85.8,174.5 84.5,172.4 82.1,171.6L81.9,171.6C77.5,169.9 72.8,173.1 73.2,177.8L74.5,197.1C75.3,207.1 93.8,222.7 127.9,222.7C161,222.7 180.5,207.1 181.3,197.1L182.6,177.6C182.9,173 178.3,169.7 173.7,171.4C174,171.4 174,171.4 173.7,171.4Z" style="fill:white;fill-rule:nonzero;"/>
            <path id="_x35__3_" d="M191.2,56.4C180.6,40.2 161,29.4 129.4,29.4L126.8,29.4C95.2,29.4 75.6,40.2 65,56.4C55.6,71 53.4,89.7 56.3,109.2C60.3,135.6 60.3,156.4 90,164.9L91,175.1C91.6,180.3 104.3,188 126.6,188L130,188C152.2,188 165.3,180.3 165.6,175.1L166.6,164.9C195.7,156.4 195.7,135.6 199.7,109.2C202.9,90 200.6,71.1 191.2,56.4ZM117,125.6C117,133.9 110.3,140.4 102.2,140.4L89.1,140.4C83.7,140.4 79.1,136 79.1,130.4L79.1,120.6C79.1,110.6 87.4,102.3 97.4,102.3L107.2,102.3C112.6,102.3 117.2,106.7 117.2,112.3L117.2,125.6L117,125.6ZM134.2,161.2L121.7,161.2C118.4,161.2 115.7,158.1 117.1,155L123.3,140.9C124.8,137.2 130.8,137.2 132.4,140.9L138.6,155C140.1,158 137.8,161.2 134.2,161.2ZM177.1,130.6C177.1,136 172.7,140.6 167.1,140.6L154,140.6C145.7,140.6 139.2,133.9 139.2,125.8L139.2,112.5C139.2,107.1 143.6,102.5 149.2,102.5L159,102.5C169,102.5 177.3,110.8 177.3,120.8L177.3,130.6L177.1,130.6Z" style="fill:white;fill-rule:nonzero;"/>
            <path id="_x34__10_" d="M197.5,43.7C199,45.8 200.6,47.6 201.9,49.7C205.6,55.1 208.1,61.1 210.2,67.2L229.7,47.7C235.3,53.3 245.1,52.5 249.5,45.4C252,41.5 252,36.2 249.5,32.3C245.1,25.2 235.4,24.4 229.7,30C235.3,24.4 234.5,14.6 227.4,10.2C223.5,7.7 218.2,7.7 214.3,10.2C207.2,14.6 206.4,24.3 212,30L197.5,43.7Z" style="fill:white;fill-rule:nonzero;"/>
            <path id="_x33__7_" d="M229.7,208.2L195,173.8C195.2,175.3 195.6,176.9 195.2,178.6L193.9,198.1C193.7,201 192.9,203.5 191.6,206.4L211.6,226.4C206.8,231.2 206.8,239.5 211.6,244.3C216.4,249.1 224.7,249.1 229.5,244.3C234.3,239.5 234.3,231.2 229.5,226.4C234.3,231.2 242.6,231.2 247.4,226.4C252.2,221.6 252.2,213.3 247.4,208.5C242.4,203.2 234.5,203.2 229.7,208.2Z" style="fill:white;fill-rule:nonzero;"/>
            <path id="_x34__11_" d="M58.5,43.7C57,45.8 55.4,47.6 54.1,49.7C50.4,55.1 47.9,61.1 45.8,67.2L26.3,47.8C20.7,53.4 10.9,52.6 6.5,45.5C4,41.6 4,36.3 6.5,32.4C10.9,25.3 20.6,24.5 26.3,30.1C20.7,24.5 21.5,14.7 28.6,10.3C32.5,7.8 37.8,7.8 41.7,10.3C48.8,14.7 49.6,24.4 44,30.1L58.5,43.7Z" style="fill:white;fill-rule:nonzero;"/>
            <path id="_x33__8_" d="M26.3,208.2L61,173.6C60.8,175.1 60.4,176.7 60.8,178.4L62.1,197.9C62.3,200.8 63.1,203.3 64.4,206.2L44.4,226.2C49.2,231 49.2,239.3 44.4,244.1C39.6,248.9 31.3,248.9 26.5,244.1C21.7,239.3 21.7,231 26.5,226.2C21.7,231 13.4,231 8.6,226.2C3.8,221.4 3.8,213.1 8.6,208.3C13.6,203.2 21.5,203.2 26.3,208.2Z" style="fill:white;fill-rule:nonzero;"/>
        </g>
    </g>
</svg>
