<?xml version="1.0" encoding="UTF-8" standalone="no"?>
<!DOCTYPE svg PUBLIC "-//W3C//DTD SVG 1.1//EN" "http://www.w3.org/Graphics/SVG/1.1/DTD/svg11.dtd">
<svg width="100%" height="100%" viewBox="0 0 32 32" version="1.1" xmlns="http://www.w3.org/2000/svg" xmlns:xlink="http://www.w3.org/1999/xlink" xml:space="preserve" xmlns:serif="http://www.serif.com/" style="fill-rule:evenodd;clip-rule:evenodd;stroke-linecap:round;stroke-linejoin:round;stroke-miterlimit:1.5;">
    <g id="Restrained">
        <circle cx="16" cy="16" r="16" style="fill:rgb(244,67,54);"/>
        <g transform="matrix(1,0,0,1,-0.775083,1.978221)">
            <path d="M14.351,12.427L14.351,15.617C14.351,16.497 13.636,17.212 12.756,17.212L5.517,17.212C4.636,17.212 3.921,16.497 3.921,15.617L3.921,12.427C3.921,11.546 4.636,10.832 5.517,10.832L12.756,10.832C13.636,10.832 14.351,11.546 14.351,12.427Z" style="fill:none;stroke:white;stroke-width:2.91px;"/>
        </g>
        <g transform="matrix(1,0,0,1,14.502689,1.978221)">
            <path d="M14.351,12.427L14.351,15.617C14.351,16.497 13.636,17.212 12.756,17.212L5.517,17.212C4.636,17.212 3.921,16.497 3.921,15.617L3.921,12.427C3.921,11.546 4.636,10.832 5.517,10.832L12.756,10.832C13.636,10.832 14.351,11.546 14.351,12.427Z" style="fill:none;stroke:white;stroke-width:2.91px;"/>
        </g>
        <g transform="matrix(0.778641,0,0,1,3.090104,-0)">
            <path d="M10.109,16L23.051,16" style="fill:none;stroke:white;stroke-width:3.25px;"/>
        </g>
    </g>
</svg>
